<svg width="64" height="64" viewBox="0 0 64 64" fill="none" xmlns="http://www.w3.org/2000/svg">
<path d="M51 0H13C5.8203 0 0 5.8203 0 13V51C0 58.1797 5.8203 64 13 64H51C58.1797 64 64 58.1797 64 51V13C64 5.8203 58.1797 0 51 0Z" fill="#7C3AED"/>
<path d="M32 12C26.6957 12 21.6086 14.0545 17.8579 17.7114C14.1071 21.3684 12 26.3283 12 31.5C12 36.6717 14.1071 41.6316 17.8579 45.2886C21.6086 48.9455 26.6957 51 32 51" stroke="white" stroke-width="4" stroke-linecap="round"/>
<path d="M32 21C29.0826 21 26.2847 22.1062 24.2218 24.0754C22.1589 26.0445 21 28.7152 21 31.5C21 34.2848 22.1589 36.9555 24.2218 38.9246C26.2847 40.8938 29.0826 42 32 42" stroke="white" stroke-opacity="0.55" stroke-width="3" stroke-linecap="round"/>
</svg>
